<svg xmlns="http://www.w3.org/2000/svg" width="256" height="256"><path fill="#1976D2" fill-opacity=".016" fill-rule="evenodd" d="M0 128.004v128.004l128.25-.254 128.25-.254.254-127.75L257.008 0H0zm.485.496c0 70.4.119 99.053.265 63.672s.146-92.98 0-128S.485 58.1.485 128.5"/><path fill="#1976D2" fill-opacity=".163" fill-rule="evenodd" d="M127.5 34c-.34.55-.224 1 .257 1s5.57 10.744 11.309 23.875C149.414 82.554 149.537 82.771 154 85.308c6.483 3.686 15.243 11.837 18.982 17.664 6.279 9.785 8.96 25.086 6.707 38.278-1.014 5.935.151 6.146 5.333.964 5.119-5.12 6.106-9.495 5.763-25.541-.217-10.179.041-13.746 1.087-15.012 1.195-1.445 1.13-1.661-.5-1.665-2.586-.005-6.739-2.751-14.372-9.501-10.36-9.163-16.773-11.516-24.572-9.018-1.888.604-3.034-1.523-12.887-23.907C133.593 44.057 128.589 33 128.422 33s-.582.45-.922 1m-1.876 3.539c-.965 2.514-.681 3.163.498 1.136.584-1.004.851-2.036.593-2.293-.257-.258-.749.263-1.091 1.157m-6.329 21.205c-10.916 25.068-10.188 22.701-6.709 21.804C117.469 79.29 126 78.295 126 78.984c0 .357-.493 3.319-1.097 6.582-1.148 6.213-2.026 7.393-5.519 7.419-3.865.028-16.041 6.92-20.203 11.435-12.985 14.086-14.204 33.897-3.059 49.722l1.86 2.642 5.759-2.341c3.168-1.287 5.776-2.701 5.797-3.142.152-3.181 1.949-6.521 4.903-9.115 3.138-2.755 3.488-3.604 3.759-9.122.421-8.537 2.3-7.158 2.3 1.688v7.251l4.816-.001c2.648-.001 5.676-.462 6.727-1.025 1.489-.797 2.358-.576 3.934 1 2.917 2.917 3.817 2.497 1.023-.477-3.481-3.705-.762-3.036 2.905.715 1.729 1.768 3.63 4.805 4.224 6.75.907 2.963 2.013 3.961 6.841 6.166l5.759 2.632 3.658-5.555c9.112-13.837 8.709-30.297-1.09-44.488-4.649-6.732-17.24-14.324-24.794-14.949-2.541-.21-2.884-.975-4.045-9.021l-.685-4.75h3.455c1.9 0 5.642.658 8.316 1.463s4.984 1.343 5.132 1.195c.496-.496-17.543-41.114-18.384-41.394-.456-.152-4.505 8.164-8.997 18.48m2.867-13.201c-1.675 3.677-1.355 4.462.456 1.119.846-1.562 1.351-3.026 1.123-3.255-.229-.228-.939.733-1.579 2.136m-4 9c-1.675 3.677-1.355 4.462.456 1.119.846-1.562 1.351-3.026 1.123-3.255-.229-.228-.939.733-1.579 2.136m-7.538 16.996c-.965 2.514-.681 3.163.498 1.136.584-1.004.851-2.036.593-2.293-.257-.258-.749.263-1.091 1.157m-17.671 8.817c-3.761 1.345-8.505 4.545-18.76 12.656C70.469 95.958 66.872 98 65.408 98c-2.158 0-2.342.255-1.421 1.975.65 1.215.952 8.043.785 17.75-.25 14.517-.101 16.095 1.875 19.783 2.337 4.363 11.511 10.766 9.886 6.9-.441-1.049-1.014-6.858-1.273-12.908-.406-9.447-.167-11.902 1.691-17.387 4.255-12.566 13.535-23.301 25.259-29.219 3.185-1.608 5.79-3.179 5.79-3.492s-.562-.379-1.25-.147c-.687.233-2.698-.18-4.468-.916-3.882-1.615-4.768-1.614-9.329.017M114 84.878c0 1.36-.628 2.117-1.75 2.107-1.468-.013-1.513-.166-.279-.946 1.911-1.208.831-2.284-1.424-1.419-1.311.503-1.596 1.383-1.158 3.574.357 1.788.202 2.671-.404 2.297-.542-.335-.985-1.231-.985-1.991 0-2.563-1.545-2.365-6.789.87-4.25 2.622-4.988 3.465-3.966 4.537 1.026 1.078.845 1.194-.995.638-2.575-.778-2.98.604-.726 2.475 2.109 1.75 1.112 2.391-1.524.98-2.737-1.465-3.481-.768-2.046 1.914.614 1.147.912 2.086.663 2.086s-1.278.267-2.285.594c-1.524.495-1.58.413-.332-.484 1.304-.939 1.279-1.081-.191-1.095-2.482-.022-3.37 2.102-1.462 3.497 1.784 1.304 2.269 4.488.684 4.488-.532 0-.673-.787-.312-1.75.594-1.587.481-1.611-1.219-.25-1.709 1.368-1.814 1.339-1.187-.334.465-1.238.283-1.698-.562-1.417-2.365.788-1.804 3.289 1.125 5.019l2.934 1.733 2.595-4.429c1.427-2.435 2.595-4.858 2.595-5.383s.958-1.206 2.13-1.513c1.341-.35 1.924-1.092 1.575-2.003-.409-1.064-.005-1.303 1.526-.902 2.237.585 1.944-.548-1.038-4.021-1.339-1.559-1.336-1.75.03-1.75.843 0 2.239 1.013 3.103 2.25 1.269 1.82 1.579 1.927 1.622.559.028-.93-.398-1.969-.948-2.309-1.261-.779-1.307-2.5-.067-2.5.513 0 1.218.9 1.567 2s1.103 2 1.674 2c.572 0 .777-.685.455-1.523-.454-1.184-.199-1.319 1.144-.605 2.596 1.379 9.277-1.522 8.53-3.704-.417-1.217-.152-1.127.981.33 2.019 2.599 2.891 1.627 2.098-2.338-.593-2.966-2.382-4.496-2.382-2.038 0 .776-.464.738-1.5-.122-1.253-1.04-1.5-.896-1.5.878m19.931-1.628c-.854 3.1-.544 5.961.699 6.438 2.773 1.064 3.916-1.414 1.796-3.897-1.534-1.797-1.57-1.981-.176-.901 1.504 1.165 1.75 1.127 1.75-.268 0-.955-.822-1.622-2-1.622-1.1 0-2.031.112-2.069.25m5.269 4.181c0 3.386 1.87 5.262 3.957 3.972.537-.332 1.613.229 2.391 1.247 1.229 1.609 1.545 1.654 2.418.35.819-1.225 1.006-1.087 1.019.75.011 1.6.61 2.25 2.074 2.25 1.132 0 1.781.45 1.441 1-.876 1.417.839 1.242 2.447-.25 1.102-1.022 1.231-.921.711.555-.409 1.159.191 2.698 1.678 4.301 2.294 2.474 2.336 2.48 4.656.601 1.507-1.22 2.115-2.486 1.706-3.551-.751-1.958-3.714-2.168-5.721-.406-.783.688-.648.315.3-.829 2.042-2.464 2.293-4.139.381-2.552-1.745 1.448-2.975.218-1.527-1.527.68-.819.724-1.342.114-1.342-.55 0-1.525.632-2.166 1.405-1.144 1.378-4.748 1.562-4.404.225.606-2.355 1.346-3.084 1.908-1.88.816 1.748 2.417 1.562 2.417-.281 0-2.179-2.714-2.937-4.763-1.331-1.534 1.203-1.592 1.176-.496-.23.683-.876.931-1.902.552-2.281s-1.259.337-1.956 1.592l-1.266 2.281-.036-2.75c-.042-3.263-1.066-3.478-3.541-.744-.998 1.104-2.04 1.781-2.315 1.506s.36-1.479 1.41-2.675c1.712-1.95 1.729-2.11.161-1.538-.963.351-1.75.202-1.75-.33 0-.533-.405-.969-.9-.969s-.9 1.544-.9 3.431M105 89.059c0 .582.45.781 1 .441s1-.816 1-1.059-.45-.441-1-.441-1 .477-1 1.059m7-.059c-.825.533-1.05.969-.5.969s1.675-.436 2.5-.969 1.05-.969.5-.969-1.675.436-2.5.969m14.079 1.583c.048 1.165.285 1.402.604.605.289-.722.253-1.585-.079-1.917s-.568.258-.525 1.312m34.171 8.137c-1.501.536-1.684 3.28-.219 3.28 1.032 0 2.547-2.802 1.843-3.406-.206-.176-.936-.119-1.624.126m2 4.224c-2.592 2.162-2.958 3.541-.71 2.679.903-.347 1.475-.081 1.382.643-.335 2.607.132 3.734 1.547 3.734.894 0 1.243.586.893 1.5-1.028 2.678 1.441 1.585 3.752-1.66l2.251-3.161-3.855.626c-3.67.595-3.751.552-1.683-.897 1.195-.837 2.173-2.001 2.173-2.587 0-.701-.487-.662-1.421.114-1.167.968-1.325.81-.884-.878.664-2.537-.494-2.575-3.445-.113m-79.886 8.549c-.728 1.898.218 3.005 3.386 3.962 1.353.409 2.25.254 2.25-.388 0-.587-.4-1.067-.889-1.067s-.826-.77-.75-1.712c.182-2.245-3.183-2.914-3.997-.795m85.66 2.622c-1.362.543-2.037 1.302-1.5 1.686.537.385 1.122 1.374 1.301 2.199s.76 1.656 1.292 1.847c.569.205.473.942-.233 1.793-.858 1.034-.892 1.752-.12 2.524.594.594.842 1.7.551 2.458-.329.856.152 1.378 1.269 1.378 1.666 0 1.656.108-.143 1.468-1.819 1.376-1.705 1.47 1.809 1.5 3.633.031 5.047-1.275 2.5-2.309-.941-.381-.879-.769.25-1.568 1.285-.908 1.239-1.063-.321-1.076-1.635-.013-1.665-.172-.293-1.544 1.961-1.961 1.02-4.437-1.743-4.587-1.69-.092-1.773-.213-.393-.573 2.511-.657 2.16-2.305-.5-2.343-2.084-.029-2.121-.13-.5-1.36 3.351-2.543 1.524-3.389-3.226-1.493m3.226 7.603c-1.718.616-1.578 2.282.191 2.282 1.656 0 2.967-1.649 1.825-2.296-.421-.239-1.328-.232-2.016.014m-48.809 2.837c-1.83 1.467-1.798 1.487.559.365 3.061-1.458 3.628-1.92 2.358-1.92-.537 0-1.849.7-2.917 1.555m9.321.865c.312.506-.132.652-.985.325-1.185-.455-1.43-.083-1.039 1.58.506 2.151.495 2.153-1.042.175-1.363-1.755-1.63-1.803-2.179-.388-.344.887-.488 4.262-.321 7.5l.304 5.888 3-.315c1.65-.174 4.012-.972 5.25-1.773 1.943-1.259 2.25-2.322 2.25-7.792v-6.333l-2.902.107c-1.596.058-2.647.52-2.336 1.026m-52.843 1.983c.894 1.077.864 1.541-.127 2-1.056.488-1.056.706 0 1.194 1.04.481 1.047.893.032 2.115-1.041 1.255-.878 1.826.944 3.301 1.782 1.444 1.919 1.893.718 2.354-1.898.728-1.93 3.525-.049 4.247.827.318 1.179 1.223.83 2.133-.425 1.108-.224 1.345.67.792.946-.585 1.103-.24.605 1.329-.555 1.75-.356 2.001 1.143 1.438 1.638-.614 1.672-.504.347 1.121-1.308 1.607-1.254 1.979.5 3.438 1.083.899 2.013 2.198 2.068 2.885.224 2.799.454 3.249 1.65 3.228.688-.012 2.319-.845 3.626-1.85l2.377-1.827-3.277-.656c-3.016-.603-3.156-.794-1.757-2.4 1.72-1.974 1.307-4.245-.771-4.245-.881 0-1.153-.606-.747-1.664.414-1.078.248-1.422-.472-.978-.765.473-.943-.345-.572-2.632.379-2.335.062-3.715-1.072-4.655-1.254-1.041-1.351-1.648-.44-2.746.838-1.009.863-1.717.091-2.489-.594-.594-.842-1.7-.551-2.458S84.63 129 83.916 129c-.772 0-.512-.595.643-1.468 2.224-1.682 1.223-2.021-1.564-.529-1.252.67-2.079.67-2.493 0-.341-.552-1.099-1.003-1.683-1.003-.704 0-.67.475.1 1.403M122 134c0 5.556.31 7 1.5 7s1.5-1.444 1.5-7-.31-7-1.5-7-1.5 1.444-1.5 7m-42 0c0 .55.9 1 2 1s2-.45 2-1-.9-1-2-1-2 .45-2 1m21.185.073c-3.1.656-8.69 4.756-7.756 5.689 1.336 1.337 10.167 1.217 13.671-.185 2.167-.868 5.169-1.595 6.67-1.617l2.73-.04-2.996-1.621c-4.211-2.278-8.453-3.045-12.319-2.226m41.315 1.361c-4.978 2.397-4.985 2.409-1.718 2.487 1.805.044 4.775.703 6.599 1.465 3.117 1.302 13.055 1.512 14.266.3 1.047-1.047-.902-2.898-5.02-4.768-5.447-2.473-8.124-2.375-14.127.516m26.171 1.98c-.321.837-.105 1.818.479 2.179q1.065.657-.265 1.478c-1.048.648-.966.961.387 1.48.944.362 1.48 1.042 1.19 1.51-.289.468-1.248.575-2.13.236-1.09-.418-1.455-.167-1.138.785.257.77-.147 2.014-.898 2.765-1.056 1.056-1.099 1.686-.189 2.782.941 1.134.867 1.298-.375.822-1.475-.566-3.471 2.783-2.905 4.873.122.454-.216.554-.752.222-.536-.331-1.471.325-2.077 1.458-1 1.869-.875 2.003 1.34 1.447 1.347-.338 2.744-.128 3.112.468.367.595 1.161 1.081 1.764 1.081s.251-1.012-.782-2.25c-1.034-1.238-1.238-1.687-.455-1s1.895 1.235 2.473 1.217.078-.845-1.11-1.837c-2.379-1.988-1.787-4.657.686-3.093 2.562 1.62 4.613 1.162 2.415-.539-1.313-1.017-1.426-1.326-.351-.955.874.301 2.21-.199 2.967-1.112 1.2-1.445 1.066-1.913-1.034-3.614l-2.412-1.953 2.944.734c2.665.664 2.815.576 1.573-.932-1.182-1.434-1.147-1.666.25-1.666.892 0 1.622-.45 1.622-1s-.848-1-1.883-1c-1.839 0-3.629-3.566-2.225-4.433 1.289-.797 3.383 1.179 2.597 2.451-.5.809-.283 1.08.622.778.764-.254 1.389-1.325 1.389-2.379 0-2.479-5.928-3.35-6.829-1.003M81 140c0 .55.9 1 2 1s2-.45 2-1-.9-1-2-1-2 .45-2 1m40 5.059c0 .582.45.781 1 .441s1-.816 1-1.059-.45-.441-1-.441-1 .477-1 1.059m19.761 4.471c.26 1.359.828 2.47 1.262 2.47.927 0 .076-3.821-.999-4.485-.404-.25-.523.657-.263 2.015m34.603 3.662c-3.557 7.24-8.092 13.094-9.48 12.236-.513-.317-.81-.029-.659.639.529 2.339-11.246 10.737-19.111 13.631-6.635 2.442-9.028 2.801-18.614 2.792-9.371-.008-12.072-.4-18.236-2.645-8.44-3.073-22.19-12.642-20.085-13.977 1.003-.635.901-.841-.423-.853-2.101-.018-6.893-6.398-9.42-12.542-1.01-2.456-2.174-4.467-2.586-4.469-1.015-.005-.944.766.285 3.062.833 1.555-.342 5.078-6 17.993-3.869 8.833-7.035 16.258-7.035 16.5s8.523.441 18.941.441c11.301 0 19.185.396 19.547.981.387.626-7.445 1.085-21.691 1.27l-22.297.289 24.27.23 24.27.23 8.73 4.388c4.801 2.414 9.554 5.302 10.561 6.419l1.832 2.03 2.027-2.027c1.114-1.114 6.285-4.003 11.489-6.418l9.462-4.392h23.037c18.025 0 22.929-.272 22.543-1.25-2.603-6.604-10.058-22.746-10.364-22.441-.215.216 1.844 5.409 4.576 11.542L195.901 188h-21.009c-13.752 0-20.797-.345-20.392-1 .376-.608 7.844-1 19.059-1 10.143 0 18.441-.178 18.441-.396s-3.15-7.658-7-16.534c-7.463-17.204-9.67-26.451-3-12.57 2.114 4.4 3.852 7.55 3.863 7 .01-.55-1.642-4.531-3.672-8.846l-3.691-7.846zm-62.682-4.54c-1.295 1.294-.673 1.912 2.068 2.056 1.513.079 2.075-.116 1.25-.432-.825-.317-1.756-.965-2.068-1.441s-.875-.558-1.25-.183m54.814.355c-.343.554.1 1.285.984 1.624 1.914.734 2.981-.075 2.061-1.564-.83-1.344-2.235-1.371-3.045-.06m-82.037 1.06c-.92 1.489.147 2.298 2.061 1.564.884-.339 1.327-1.07.984-1.624-.81-1.311-2.215-1.284-3.045.06m52.354.616c.721.289 1.584.253 1.916-.079s-.258-.568-1.312-.525c-1.165.048-1.402.285-.604.604m-17.101.939c-1.087 1.086-.848 6.378.288 6.378.55 0 1.014-.787 1.03-1.75.029-1.667.079-1.667 1.05 0 1.641 2.817 2.92 2.024 2.92-1.809 0-2.01-.416-3.302-.956-2.968-.526.325-.709 1.364-.407 2.309.378 1.181-.038 1.001-1.332-.577-1.035-1.262-2.202-1.975-2.593-1.583M130 152c0 .55.502 1 1.117 1 .654 0 .917 1.044.634 2.524-.694 3.627.956 4.085 1.747.485.364-1.655 1.102-3.009 1.64-3.009.539 0 .702-.45.362-1s-1.716-1-3.059-1-2.441.45-2.441 1m-16.9 1.813c-.605 1.13-1.1 3.04-1.1 4.244 0 1.742.28 1.955 1.373 1.048.756-.627 2.106-.859 3-.515 2.136.819 2.047-.432-.279-3.962-1.843-2.794-1.923-2.816-2.994-.815m25.597-1.063c-.231.412-.716 1.988-1.078 3.5-.65 2.722.727 3.91 1.74 1.5.376-.895.839-.753 1.633.5 1.646 2.601 2.58 2.128 2.542-1.286-.039-3.501-3.53-6.543-4.837-4.214M140.5 155c.34.55.816 1 1.059 1s.441-.45.441-1-.477-1-1.059-1-.781.45-.441 1m-36.833.667C102.29 157.043 103.073 159 105 159c1.1 0 2 .436 2 .969s-.675.709-1.5.393c-.825-.317-1.5-.047-1.5.601 0 1.855 4.442.736 4.813-1.213.236-1.237-.347-1.784-1.99-1.866-1.694-.085-1.849-.24-.573-.573.963-.252 1.75-.875 1.75-1.384 0-1.062-3.332-1.262-4.333-.26m44.817 3.405c-.872 3.97.155 5.007 1.488 1.502 1.271-3.342 1.3-4.574.107-4.574-.506 0-1.224 1.382-1.595 3.072m-76.86.467c-.965 2.514-.681 3.163.498 1.136.584-1.004.851-2.036.593-2.293-.257-.258-.749.263-1.091 1.157m44.722.958c-5.385 1.171-14.321 4.895-10.346 4.311.825-.121 4.2.847 7.5 2.15 8.537 3.371 19.603 3.406 28.792.092 6.744-2.432 6.774-2.46 4.186-3.816-3.49-1.828-15.011-4.214-19.978-4.137-2.2.034-6.769.664-10.154 1.4m-48.722 8.042c-.965 2.514-.681 3.163.498 1.136.584-1.004.851-2.036.593-2.293-.257-.258-.749.263-1.091 1.157m39.506 4.074c-1.393 3.058-.671 4.208 2.891 4.608 1.364.154 3.124.891 3.911 1.64 1.213 1.153 1.634 1.085 2.75-.441 1.267-1.733 1.318-1.733 1.318-.004 0 1.17.513 1.601 1.468 1.235.807-.31 1.73-.14 2.05.377.941 1.524 5.479.704 5.512-.996.025-1.241.225-1.199 1.05.218 1.069 1.835 3.92 2.426 3.92.813 0-.516 1.512-.692 3.36-.392q3.36.546 4.72-.912c.749-.801 2.162-1.247 3.14-.991 1.131.296 1.78-.09 1.78-1.058 0-1.054.646-1.354 2.099-.974 2.064.54 2.071.493.399-2.739-1.098-2.125-1.958-2.871-2.429-2.109-.42.68-1.506.882-2.563.476-1.259-.483-1.61-.341-1.118.455.468.756.178.952-.836.563-1.197-.46-1.552.114-1.552 2.511 0 3.846-1.68 4.036-3.144.357-.602-1.512-1.295-2.213-1.54-1.556-.245.656-1.014.975-1.709.709-.696-.267-1.794.546-2.441 1.806l-1.177 2.291.573-2.25c.327-1.286.115-2.25-.495-2.25-.587 0-1.074.563-1.082 1.25-.012.96-.207.948-.841-.051-1.047-1.651-6.246-2.281-7.894-.958-.854.686-1.25.648-1.25-.119 0-1.789-1.807-1.298-2.311.628-.344 1.317-.486 1.193-.573-.5-.138-2.669-.951-2.857-2.601-.601-1.063 1.453-1.194 1.367-1.11-.719.136-3.396-2.773-3.612-4.275-.317M122 177c0 1.1.477 2 1.059 2s.781-.45.441-1-.115-1 .5-1 .84-.45.5-1c-1.045-1.691-2.5-1.109-2.5 1m-58.376.539c-.965 2.514-.681 3.163.498 1.136.584-1.004.851-2.036.593-2.293-.257-.258-.749.263-1.091 1.157"/><path fill="#1976D2" fill-opacity=".491" fill-rule="evenodd" d="M119.5 59.634c-4.4 10.224-8.173 19.057-8.384 19.629-.249.675.805.794 3 .338 1.861-.387 5.488-.964 8.06-1.283l4.677-.579 1.202 4.38c.662 2.41 1.801 9.556 2.531 15.881 1.862 16.118 1.89 16.285 3.073 18.376.979 1.731 1.112 1.671 1.725-.771.366-1.455.219-3.478-.325-4.494s-.774-2.063-.511-2.326-.909-7.116-2.604-15.229c-1.694-8.114-2.805-15.028-2.468-15.365.336-.337 4.08.103 8.318.977s7.786 1.527 7.883 1.45c.418-.328-17.011-39.616-17.565-39.596-.337.012-4.212 8.387-8.612 18.612m4.162 34.116c-3.291 15.823-4.302 24.25-2.908 24.25.566 0 1.364-1.237 1.772-2.75.842-3.115.781-2.719 2.82-18.25l1.509-11.5-.283 14.5c-.288 14.767.298 20.637 1.815 18.183 1.758-2.845.084-37.183-1.813-37.183-.142 0-1.453 5.737-2.912 12.75m10.784-9.663c-.369.598-.171 1.588.441 2.2 1.672 1.672 1.339 3.146-.387 1.713-.946-.785-1.5-.852-1.5-.181 0 1.954 2.174 2.436 3.774.836 1.442-1.442 1.433-1.638-.096-2.225-.923-.354-1.678-1.094-1.678-1.644s.698-.732 1.552-.404c.89.341 1.291.173.941-.393-.805-1.302-2.209-1.257-3.047.098m-20.053 1.495c.334.87.639 2.332.677 3.25.056 1.315.238 1.245.862-.332.901-2.277.335-4.5-1.146-4.5-.55 0-.727.712-.393 1.582m3.318.417c-.288 1.099-.115 2.251.383 2.559s.906-.592.906-1.999c0-3.064-.57-3.312-1.289-.56m21.674.823c.063 1.745.34 3.16.615 3.144 1.037-.06 4.046-4.966 3.047-4.966-.576 0-1.047.536-1.047 1.191s-.614.351-1.365-.676c-1.256-1.717-1.356-1.612-1.25 1.307M109.5 88c.415 1.887.259 3-.421 3-.593 0-1.079-.9-1.079-2 0-2.086-.776-2.407-3.393-1.403-1.395.536-1.401.901-.057 3.5 1.559 3.015 2.808 3.999 1.825 1.439-.431-1.125.119-1.379 2.373-1.093 1.614.204 3.569-.03 4.343-.521 1.117-.707 1.021-.895-.463-.907-1.581-.013-1.672-.257-.581-1.571.71-.856.878-1.478.372-1.382-2.085.397-2.822-.155-1.419-1.062 1.268-.82 1.218-.972-.329-.985-1.515-.012-1.716.502-1.171 2.985m34.112.47c-1.281 1.954-1.323 2.356-.203 1.926.835-.32 1.61.206 1.888 1.281.259 1.002.523.136.587-1.927.137-4.418-.121-4.563-2.272-1.28M105 89c0 .55.45 1 1 1s1-.45 1-1-.45-1-1-1-1 .45-1 1m43.153 1.564c-.676 1.483-.743 2.301-.161 1.941.555-.343 1.008.093 1.008.967 0 1.699 1.836 2.717 5.338 2.959 1.315.091 2.035.711 1.838 1.581-.231 1.021.271.894 1.75-.445 2.53-2.29 2.592-2.742.324-2.361-1.258.211-1.661-.268-1.433-1.706.302-1.9.239-1.892-1.242.158-1.048 1.45-2.235 1.982-3.616 1.621-2.789-.729-2.078-3.804.855-3.696 1.583.058 1.938-.231 1.194-.975s-1.67-.676-3.12.23c-1.871 1.168-2.002 1.096-1.408-.775.918-2.892.074-2.573-1.327.501m-48.12.03c-.807 1.048-1.089 1.588-.626 1.199.463-.39 1.573.082 2.467 1.047s1.337 1.283.984.707c-.354-.576-.804-1.905-1-2.953-.352-1.874-.382-1.874-1.825 0m-2.646 3.156c.493.844.011 1.25-1.483 1.25-2.19 0-2.194.023-.309 2.17 1.879 2.14 1.878 2.159-.095 1.425-3.108-1.155-3.31-1.161-3.15-.095.083.55.471.893.864.762s.475.386.182 1.149-.041 1.691.561 2.062c.61.377.971.091.818-.649-.158-.76.444-1.205 1.414-1.044 1.314.218 1.586-.293 1.221-2.301-.422-2.328-.269-2.474 1.561-1.494 2.685 1.436 2.595-.179-.143-2.58-1.194-1.048-1.843-1.342-1.441-.655m17.957 4.503c-.412.666-.804 1.955-.871 2.863-.161 2.18 4.265 1.988 4.841-.209.546-2.085-2.899-4.388-3.97-2.654m22.067.07c-1.376 1.577-.388 4.177 1.589 4.177 2.065 0 2.962-2.681 1.415-4.228-1.531-1.531-1.624-1.53-3.004.051m21.374.427c-1.904 2.186-1.245 4.25 1.357 4.25 1.087 0 1.701.445 1.365.989-.351.568.054.733.952.388 1.174-.45 1.396-.162.89 1.156-.432 1.125-.031 2.226 1.114 3.064 1.155.844 1.547 1.935 1.107 3.081-.517 1.346-.064 1.195 1.874-.626C170.11 108.548 170.705 107 169 107c-.55 0-1.036.787-1.079 1.75-.047 1.045-.282 1.247-.583.5-.278-.687-1.255-1.26-2.171-1.272-1.295-.018-1.11-.484.833-2.093 1.757-1.455 1.96-1.897.685-1.484-1.475.476-1.692.196-1.156-1.493.607-1.912.472-1.979-1.684-.83-2.129 1.134-2.22 1.097-.983-.402 2.906-3.523-1.07-6.377-4.077-2.926m.289.661c-.837 1.008-.859 1.604-.079 2.086 1.327.82 4.204-1.367 3.435-2.61-.793-1.283-2.015-1.092-3.356.524M87.5 102c-1.124 1.819.576 3.019 3.311 2.338 2.421-.603 2.552-.504 1.317.996-.755.916-.916 1.666-.357 1.666.558 0 1.281-.692 1.605-1.538.675-1.759-1.664-3.02-3.498-1.887-.841.52-1.02.238-.579-.911.685-1.786-.773-2.324-1.799-.664m18.744.584c-1.6 1.713-.687 3.957 1.684 4.136 2.427.182 3.295-3.099 1.171-4.426-1.165-.727-1.982-.644-2.855.29m40.756-.592c0 .554-.73 1.008-1.622 1.008-1.244 0-1.363.313-.509 1.342.612.738.874 1.582.581 1.875s.573.533 1.924.533c3.092 0 4.063-2.996 1.491-4.602-1.15-.719-1.865-.779-1.865-.156m-62.361 4.506c-.35.913.372 2.119 1.849 3.086 2.492 1.633 4.573 1.213 4.433-.893-.057-.859-.22-.842-.583.059-.278.688-.965 1.25-1.528 1.25s-.746-.725-.406-1.611c.456-1.189.193-1.448-1.004-.989-1.165.447-1.459.196-1.043-.889.319-.831.192-1.511-.281-1.511s-1.121.674-1.437 1.498m16.037 2.997C98.595 111.017 99.471 114 102 114c2.314 0 3.367-2.775 1.691-4.452-1.048-1.048-1.64-1.059-3.015-.053m52.403-.745c-.043.688-.809 1.25-1.701 1.25-1.244 0-1.363.313-.509 1.342.612.738.874 1.582.581 1.875s.629.533 2.05.533 2.343-.24 2.05-.533-.031-1.137.581-1.875c.85-1.024.749-1.342-.425-1.342-.847 0-1.766-.562-2.044-1.25-.403-1-.52-1-.583 0m-70.412 1.917c-1.357 1.356-.596 3.044 1.88 4.172 3.477 1.585 3.499 1.561 1.803-1.839-1.495-2.998-2.428-3.589-3.683-2.333M83.5 112c-.34.55-.141 1 .441 1S85 112.55 85 112s-.198-1-.441-1-.719.45-1.059 1m86.085 1.891c-1.053.413-2.026 1.507-2.162 2.43-.346 2.362.843 2.089 3.577-.821 2.388-2.542 2.023-2.956-1.415-1.609m-72.506 2.859c-.043.688-.809 1.25-1.701 1.25-1.244 0-1.363.313-.509 1.342.612.738.874 1.582.581 1.875s.629.533 2.05.533 2.343-.24 2.05-.533-.031-1.137.581-1.875c.85-1.024.749-1.342-.425-1.342-.847 0-1.766-.562-2.044-1.25-.403-1-.52-1-.583 0m59.816.63c-1.988 1.517-1.226 4.521 1.103 4.345a2.512 2.512 0 0 0 1.533-4.374c-.843-.787-1.575-.779-2.636.029m12.316 1.158c-.915 1.037-.952 1.462-.128 1.462.832 0 .86.364.097 1.284-1.551 1.868.164 3.945 2.933 3.553 3.352-.473 3.287-4.21-.081-4.685l-2.468-.348 2.468-1.367c2.185-1.21 2.239-1.366.468-1.364-1.1.002-2.58.661-3.289 1.465M170 122.5c0 .833.889 1.5 2 1.5s2-.667 2-1.5-.889-1.5-2-1.5-2 .667-2 1.5m-90.736 5.355c.083 1.104.477 1.805.874 1.559.398-.245 1.008.014 1.356.577s-.071 1.293-.931 1.623c-.859.33-1.563 1.404-1.563 2.386 0 2.028 2.268 3.218 4.5 2.362 1.809-.694 2.018-4.356.25-4.377-.915-.012-.885-.247.113-.879 1.151-.729 1.151-.961 0-1.485-1.055-.481-1.081-.753-.113-1.204.688-.321 1.25-1.051 1.25-1.623 0-.627-.594-.546-1.5.206-1.168.969-1.82.98-2.944.047-1.18-.98-1.416-.832-1.292.808m91.486-1.193c.688.278 1.25 1.105 1.25 1.838s-.562 1.56-1.25 1.838q-1.258.505.25.513c.825.005 2.4-.378 3.5-.851 1.71-.735 1.746-.87.25-.93-.963-.038-1.75-.487-1.75-.997 0-.509.787-1.132 1.75-1.384.963-.251.175-.474-1.75-.494s-2.937.19-2.25.467m-90.304 6.425c-1.03 1.668 1.287 3.58 2.667 2.2C84.267 134.133 83.545 132 82 132c-.485 0-1.184.489-1.554 1.087m89.045 4.163c-.554 1.551-.115 4.459.813 5.388 1.26 1.259.726 2.587-.804 2-.825-.316-1.5-.139-1.5.393 0 .533.638.969 1.418.969s2.018.151 2.75.336.994.147.582-.083c-1.57-.878-.743-3.188.914-2.552 1.119.43 1.427.256.941-.531-.398-.644-1.484-1.17-2.414-1.171-1.098 0-1.742-.876-1.835-2.5-.102-1.757.369-2.499 1.583-2.499 2.442 0 3.232 1.089 1.93 2.658-.761.916-.777 1.342-.05 1.342 1.779 0 2.426-2 1.145-3.544-1.481-1.784-4.864-1.911-5.473-.206m-88.824 1.417c-.367.366-.667 1.5-.667 2.519 0 1.513.503 1.732 2.75 1.195 1.513-.362 3.068-.835 3.456-1.051.922-.514-.162-3.33-1.282-3.33-.473 0-.602.675-.286 1.5.4 1.041-.069 1.5-1.531 1.5-2.299 0-2.86-1.53-.857-2.338.698-.281.771-.539.167-.583-.596-.043-1.384.221-1.75.588m1.343 5.306c-1.107.7-.786.867 1.252.649 1.507-.16 3.04-.591 3.406-.957 1.022-1.022-2.972-.758-4.658.308m.904 2.63c-1.326 1.598.176 1.808 3.532.495 1.868-.731 1.859-.785-.213-1.327-1.251-.327-2.647.023-3.319.832m83.466 1.849c-.306.799-.266 1.924.09 2.5.357.576-.027 1.048-.852 1.048s-1.825.526-2.223 1.17c-.492.796-.169.957 1.013.504.955-.367 2.717-.194 3.914.385 2.105 1.016 2.113.999.237-.504-1.878-1.504-1.856-1.555.691-1.555 3.172 0 4.363-1.556 2.714-3.544-1.557-1.875-4.865-1.878-5.584-.004m-81.83 1.141c-1.481 1.481-1.511 1.874-.238 3.147 1.866 1.866 5.97-.038 5.487-2.546-.446-2.316-3.217-2.633-5.249-.601m82.7-.343c.63 1.892 3.75 2.161 3.75.323 0-.927-.855-1.573-2.083-1.573-1.222 0-1.912.517-1.667 1.25M85.5 150c-1.081 1.749.522 3.227 2.089 1.926.776-.644 1.411-1.566 1.411-2.048 0-1.206-2.738-1.11-3.5.122m35.636 5.095c.095 2.382.267 2.723.573 1.134l.436-2.272 1.894 2.272 1.894 2.271-.082-3.5c-.046-1.925-.295-2.679-.555-1.675-.448 1.734-.568 1.739-2.384.095-1.848-1.672-1.907-1.617-1.776 1.675m9.513-2.33c.632.404 1.358 1.86 1.614 3.235l.465 2.5.136-2.667c.075-1.466.699-2.893 1.386-3.171.688-.277-.1-.533-1.75-.568s-2.483.267-1.851.671m43.372 3.902c-1.33 2.507-4.449 6.817-6.931 9.577-2.481 2.76-4.614 5.72-4.74 6.578-.595 4.055-1.551 6.263-3.939 9.101L155.822 185h17.589c9.674 0 17.589-.136 17.589-.302 0-.544-13.719-31.75-14.145-32.177-.228-.228-1.504 1.638-2.834 4.146m-61.316-.917c-.68 3.54-.004 4.233 1.132 1.162l.88-2.379.709 2.233c.39 1.229 1.14 2.234 1.667 2.234s.26-1.35-.593-3c-1.93-3.732-3.111-3.81-3.795-.25m25.962-2.083c-.367.366-.66 1.829-.652 3.25.012 2.013.224 2.253.961 1.088.812-1.284 1.174-1.214 2.566.5 1.18 1.452 1.484 1.552 1.118.367-.277-.896-.038-2.094.531-2.663s.732-1.524.363-2.122c-.742-1.2-3.841-1.467-4.887-.42M72.04 168.25c-3.434 7.838-6.471 14.813-6.749 15.5-.393.972 3.451 1.25 17.289 1.25h17.794l-2.565-2.75c-3.066-3.287-4.809-6.491-4.809-8.838 0-.945-2.239-4.086-4.975-6.979s-5.745-6.874-6.685-8.847c-.941-1.972-2.013-3.586-2.383-3.586s-3.483 6.412-6.917 14.25m15.296-12.683c-1.084 2.824 1.173 3.663 3.754 1.397 1.325-1.164 1.879-1.85 1.229-1.524s-1.463.135-1.809-.424c-.93-1.504-2.489-1.233-3.174.551M140 155c0 .55.45 1 1 1s1-.45 1-1-.45-1-1-1-1 .45-1 1m-52 1c0 .55.477 1 1.059 1s.781-.45.441-1-.816-1-1.059-1-.441.45-.441 1m16.131.342c-1.331 1.604-.501 2.658 2.095 2.658 1.087 0 1.611.454 1.232 1.068-.363.588-1.29.827-2.059.532-.77-.296-1.399-.07-1.399.501 0 1.48 4.256.663 4.777-.917.239-.724-.514-1.564-1.672-1.867s-2.105-.934-2.105-1.402c0-.469.749-.565 1.664-.214 1.119.43 1.427.256.941-.531-.95-1.537-2.103-1.48-3.474.172m59.302-.451c.713 1.154 4.567 3.483 4.567 2.759 0-.231-1.18-1.193-2.623-2.139s-2.318-1.224-1.944-.62M149 158.5c-.581 1.528-.831 3.002-.556 3.277s.975-.749 1.556-2.277.831-3.002.556-3.277-.975.749-1.556 2.277m11.507-.511c-.336.543.015.748.781.454.765-.294 1.969.161 2.674 1.011.706.851 1.79 1.536 2.41 1.524 1.163-.023-3.328-3.916-4.563-3.956-.38-.012-.966.423-1.302.967m-53.373 15.057c-.949 2.721-.826 3.135 1.152 3.884 1.317.5 2.72.432 3.464-.168 1.581-1.274 1.65-3.127.08-2.157-.808.5-.952.156-.466-1.111.421-1.097.188-2.161-.58-2.649-2.057-1.305-2.527-1.022-3.65 2.201m38.207-.788c.088 1.495.722 2.935 1.409 3.199 1.587.61 1.535-.314-.194-3.438l-1.373-2.48zM109 172c0 .55.477 1 1.059 1s.781-.45.441-1-.816-1-1.059-1-.441.45-.441 1m5.035 0c-.659 1.633-.573 5.117.154 6.215.656.993 1.186.844 2.33-.656 1.701-2.229 1.946-4.559.481-4.559-.55 0-1.053 1.012-1.118 2.25-.096 1.819-.265 1.675-.882-.75-.42-1.65-.854-2.775-.965-2.5M139 174.941c0 2.052-.494 3.059-1.5 3.059-.825 0-1.5-.648-1.5-1.441s-.408-1.693-.907-2.001c-.498-.309-.718.452-.489 1.691.23 1.238.15 1.686-.178.995s-1.003-1.005-1.5-.698-.635-.14-.308-.994c.328-.854.098-1.552-.511-1.552S131 175.125 131 176.5c0 3.148-1.283 3.208-2.926.138-2.149-4.016-10.074-2.607-10.074 1.791 0 .864.45 1.571 1 1.571s1-.364 1-.809c0-2.005 2.653-4.262 4.276-3.638.948.363 1.724 1.049 1.724 1.523 0 .473-.749.574-1.664.223-1.216-.467-1.441-.278-.836.701s.38 1.168-.836.701c-.915-.351-1.664-.229-1.664.271 0 1.573 2.032 2.246 3.386 1.123.714-.593 1.594-.782 1.956-.42s.658.064.658-.663c0-.954.532-.841 1.909.406 1.795 1.624 1.967 1.626 2.862.027.646-1.154 1.177-1.338 1.65-.573.998 1.615 4.173 1.392 5.985-.421.852-.852 2.325-1.414 3.273-1.25 2.135.37 2.494-4.31.384-5.013-.954-.318-1.181.062-.734 1.227.357.929.242 1.438-.255 1.131s-1.093-.218-1.325.198-.29.208-.129-.462-.138-1.484-.664-1.809c-.529-.327-.956.776-.956 2.468M108 175c0 .55.45 1 1 1s1-.45 1-1-.45-1-1-1-1 .45-1 1"/><path fill="#1976D2" fill-opacity=".355" fill-rule="evenodd" d="M127.123 60.771c-.778 1.453-2.138 2.237-3.908 2.251l-2.715.022 2.367 1.821c1.751 1.346 2.189 2.383 1.683 3.978-.733 2.31.356 2.851 2.143 1.064.79-.79 1.657-.79 3.134 0 2.929 1.568 3.389 1.365 2.15-.95-.904-1.688-.693-2.376 1.215-3.966l2.308-1.924-2.597-.034c-1.702-.022-2.94-.801-3.592-2.262l-.995-2.23zm-3.755 36.726c-1.115 5.739-1.686 10.989-1.267 11.667q.762 1.238 1.288-1.216c.897-4.175 2.735-20.157 2.362-20.531-.195-.195-1.268 4.341-2.383 10.08m6.734-7.679c-.056 1.275.625 7.35 1.513 13.5 1.821 12.602 3.81 18.017 2.823 7.682-.732-7.659-4.189-24.545-4.336-21.182m-2.987 13.491c-.063 7.595.268 13.572.737 13.283 1.121-.693 1.28-17.976.213-23.092-.614-2.939-.865-.338-.95 9.809m-11.803-4.798c-1.195 1.279-.537 2.852 1.343 3.207 1.652.313 2.31-2.027.933-3.314-.838-.782-1.473-.753-2.276.107M137 99c-1.09.704-1.142.974-.191.985.72.008 1.031.465.691 1.015s.035 1 .834 1c1.554 0 2.922-2.411 1.93-3.402-.817-.818-1.508-.733-3.264.402m-30.704 3.843c-1.411.907-.141 3.634 1.752 3.762.852.058 1.608-.693 1.682-1.669.146-1.941-1.813-3.136-3.434-2.093m40.06-.148c-.629.221-.917 1.269-.639 2.329.404 1.546.878 1.728 2.393.917 1.04-.556 1.89-1.397 1.89-1.869 0-1.09-2.147-1.901-3.644-1.377m-44.978 7.488c-1.416 2.268-1.203 3.388.643 3.388 1.219 0 1.665-.606 1.412-1.921-.504-2.616-1.08-3.028-2.055-1.467m51.04.171c-1.032 2.687-.083 3.853 1.934 2.378 1.654-1.21 1.678-1.462.25-2.647-1.319-1.095-1.678-1.051-2.184.269m-31.811 1.472c-.281.455-.232 1.893.109 3.197.579 2.213.67 2.241 1.382.423.419-1.07.793-2.508.832-3.196.079-1.402-1.536-1.696-2.323-.424m-24.301 5.886c-1.519.531-.518 3.288 1.194 3.288.707 0 1.531-.638 1.83-1.417.584-1.524-1.077-2.552-3.024-1.871m60.944.019c-1.815.633-1.533 2.047.64 3.21 1.513.81 1.989.63 2.389-.9.521-1.992-.88-3.06-3.029-2.31M121 153c0 .55.477 1 1.059 1s.781-.45.441-1-.816-1-1.059-1-.441.45-.441 1m3.5 4c.34.55.816 1 1.059 1s.441-.45.441-1-.477-1-1.059-1-.781.45-.441 1"/></svg>