<svg xmlns="http://www.w3.org/2000/svg" width="256" height="256"><path fill="#1976D2" fill-opacity=".016" fill-rule="evenodd" d="M0 128.004v128.004l128.25-.254 128.25-.254.254-127.75L257.008 0H0zm.485.496c0 70.4.119 99.053.265 63.672s.146-92.98 0-128S.485 58.1.485 128.5"/><path fill="#1976D2" fill-opacity=".143" fill-rule="evenodd" d="M106.608 61.522C92.974 65.265 78.944 75.97 71.724 88.136c-10.27 17.305-10.908 37.672-1.749 55.815 3.007 5.957 7.808 12.288 6.484 8.549-5.357-15.117-6.417-24.37-4.069-35.5 4.626-21.927 20.826-39.055 42.07-44.478 4.502-1.15 11.694-1.522 29.397-1.522h23.437l4.473-3.75a749 749 0 0 1 6.603-5.478c2.027-1.644.467-1.724-32.37-1.66-25.604.05-35.761.413-39.392 1.41M181 71.078l-10.5 9.868-24.5.039c-26.645.042-30.746.618-40.15 5.636-2.942 1.571-7.903 5.425-11.024 8.565-14.026 14.113-17.549 36.043-8.651 53.848L89.156 155h20.741c15.463 0 22.017-.379 25.758-1.49 5.166-1.534 13.345-6.754 13.345-8.516 0-.598-4.38-.994-11-.994-6.05 0-11-.372-11-.827s3.633-7.429 8.073-15.5L143.146 113h4.684c6.479 0 10.995-1.473 14.499-4.73 2.875-2.672 2.85-1.503-.04 1.874-1.213 1.417-1.175 2.439.273 7.42 4.799 16.509-3.009 35.29-17.768 42.735-7.977 4.024-13.81 4.7-40.68 4.712l-24.614.011-7.5 14.672c-4.125 8.069-7.681 15.151-7.903 15.738-.222.588 4.397-3.545 10.264-9.182L85.028 176l21.736-.008c25.715-.008 32.366-.88 41.797-5.474 16.099-7.844 26.449-24.475 26.433-42.478-.009-10.996-5.291-25.574-9.663-26.672-1.309-.328-11.482-.41-22.606-.181-18.316.376-20.697.628-25.225 2.668-4.841 2.181-10.5 6.671-10.5 8.332 0 .447 5.141.813 11.425.813h11.424l-8.384 15.25-8.385 15.25-5.79.257c-8.402.374-10.253.994-13.589 4.55l-2.995 3.193 1.64-3.187c.902-1.752 2.066-3.45 2.587-3.771.559-.346.277-2.113-.689-4.314-1.084-2.472-1.643-6.592-1.659-12.228-.031-11.039 3.17-18.586 11.038-26.028 9.797-9.266 10.518-9.426 43.89-9.776l29.014-.304 7.663-15.186c4.215-8.352 7.584-15.255 7.487-15.341S186.775 65.65 181 71.078m.59 37.408c8.885 24.147-.113 52.431-21.268 66.854-12.868 8.773-21.873 10.611-52.139 10.64l-20.317.02-5.433 4.691c-2.988 2.58-5.433 5.091-5.433 5.58 0 .509 14.625.718 34.25.489 37.598-.44 38.906-.621 51.25-7.1 7.798-4.093 19.089-15.417 23.28-23.346 4.01-7.588 7.226-19.742 7.203-27.224-.037-11.876-5.021-26.939-11.444-34.59l-2.519-3z"/><path fill="#1976D2" fill-opacity=".465" fill-rule="evenodd" d="M110.5 61.022c-37.335 7.494-57.249 48.304-40.335 82.661 4.16 8.452 6.03 9.796 3.558 2.558-2.527-7.397-3.361-21.322-1.763-29.442 3.423-17.401 15.247-32.61 31.684-40.755 9.666-4.789 18.532-6.04 43.064-6.076l21.792-.032L174 65l5.5-4.936-32.5.077c-17.875.043-34.3.439-36.5.881M181 71.5l-9.46 9.5-23.52.015c-31.473.02-39.795 2.082-51.112 12.668-15.5 14.498-19.609 38.638-9.627 56.567l2.087 3.75 22.566-.01c21.617-.009 22.776-.109 27.566-2.367 2.75-1.297 6.091-3.543 7.424-4.991l2.425-2.632h-11.758c-6.467 0-11.608-.35-11.424-.778.183-.428 4.094-7.628 8.692-16L143.218 112h6.457c7.542 0 9.647-.869 14.143-5.835l3.318-3.665-2.054 4.182c-1.129 2.3-2.486 4.45-3.014 4.776-.583.36-.331 2.255.642 4.818.97 2.557 1.617 7.397 1.639 12.263.032 6.959-.384 8.938-3.092 14.725-3.755 8.024-10.146 14.553-18.04 18.429L137.5 164.5l-28.743.306-28.743.307-7.259 14.313-7.259 14.314 10.037-9.294 10.038-9.295 26.464-.357c30.337-.408 32.799-.945 44.219-9.644 17.487-13.32 23.129-36.736 13.725-56.967l-2.936-6.316-23.272.316c-21.621.295-23.555.47-27.271 2.48-2.2 1.19-5.116 3.215-6.48 4.5l-2.48 2.337 11.23.283c6.176.155 11.23.605 11.23 1-.001.394-3.713 7.467-8.25 15.717l-8.25 15-7 .513c-7.957.584-10.282 1.625-13.912 6.231-3.3 4.187-3.364 2.178-.084-2.655 2.476-3.648 2.486-3.745.876-8.666-1.165-3.562-1.505-7.316-1.196-13.2.364-6.935.959-9.212 3.797-14.536 4.132-7.752 11.261-14.333 18.817-17.372 5.392-2.169 7.229-2.311 33.746-2.61l28.044-.317 7.201-14.444C187.75 68.5 190.872 62 190.726 62s-4.523 4.275-9.726 9.5m1.719 39.509c4.65 13.779 3.128 30.874-3.953 44.378-4.588 8.751-15.542 19.469-24.512 23.986-11.506 5.793-16.676 6.595-42.608 6.612L88.793 186l-6.042 5.048-6.041 5.049 35.395-.299c32.777-.276 35.811-.45 41.022-2.351 18.03-6.579 31.946-21.295 37.304-39.447 2.137-7.24 2.163-21.92.053-30.06-1.762-6.802-5.077-13.981-8.284-17.941-1.836-2.267-1.791-1.834.519 5.01"/><path fill="#1976D2" fill-opacity=".392" fill-rule="evenodd" d="M114.5 60.698c-22.46 2.978-42.293 20.261-48.576 42.328-.701 2.461-1.308 8.974-1.349 14.474-.085 11.347 2.253 20.311 7.567 29.019 1.672 2.74 2.711 4.081 2.308 2.981-3.884-10.618-4.926-24.679-2.558-34.5 3.838-15.913 15.36-30.744 29.711-38.243 11.249-5.878 16.648-6.725 42.957-6.742L167.62 70l5.44-4.616c2.992-2.538 5.627-4.788 5.857-5 .544-.502-60.505-.205-64.417.314m6.306 42.701c-4.649 1.251-6.113 2.084-10.642 6.054l-2.336 2.047 11.547.5 11.546.5-8.569 15.614-8.57 15.614-7.298.552c-7.87.595-10.818 1.976-14.314 6.704L89.94 154h20.871c15.118 0 22.168-.39 25.575-1.416 4.801-1.445 11.614-5.923 11.614-7.635 0-.541-4.727-.949-11-.949-6.05 0-10.998-.338-10.995-.75s3.754-7.5 8.334-15.75l8.329-15 7.651-.549c6.72-.482 8.029-.908 10.752-3.5 6.94-6.605 7.29-6.459-15.286-6.384-12.993.044-21.972.522-24.979 1.332m61.734 5.351c2.222 5.157 3.612 15.323 3.111 22.75-1.418 21.042-13.358 39.266-31.839 48.595-10.39 5.245-14.963 5.905-40.907 5.905H89.23l-5.781 4.75-5.78 4.75 5.416.319c2.978.175 18.465.157 34.415-.041 28.343-.352 29.153-.419 35.742-2.942 19.634-7.519 32.738-21.919 37.209-40.889 1.802-7.647 1.979-17.803.436-25.148-1.152-5.486-7.245-19.799-8.429-19.799-.37 0-.333.787.082 1.75"/></svg>