<svg xmlns="http://www.w3.org/2000/svg" width="256" height="256"><path fill="#1976D2" fill-opacity=".016" fill-rule="evenodd" d="M0 128.004v128.004l128.25-.254 128.25-.254.254-127.75L257.008 0H0zm.485.496c0 70.4.119 99.053.265 63.672s.146-92.98 0-128S.485 58.1.485 128.5"/><path fill="#1976D2" fill-opacity=".378" fill-rule="evenodd" d="M58.989 50.283c-5.269 2.782-9.791 8.722-10.645 13.983L47.738 68h10.381l10.381.001-.166-9.751c-.159-9.424-.243-9.76-2.51-10.043-1.29-.162-4.366.773-6.835 2.076m14.226 7.967L73.5 68.5h89l.285-10.25.285-10.25H72.93zM167 58v10h41V48h-41zm-75.17-2.75c-.222 1.237-.102 3.6.265 5.25.541 2.428.691 1.999.787-2.25.123-5.476-.361-6.857-1.052-3m44.32 3.461c.107 3.411.276 3.927.59 1.792.242-1.648.8-3.223 1.24-3.5s.173-1.083-.591-1.792c-1.173-1.089-1.366-.544-1.239 3.5M88.2 57.2c-1.415 1.415-1.584 4.444-.293 5.242.498.309.67-.342.382-1.446s.033-2.679.715-3.501c1.482-1.785.899-1.998-.804-.295m12.191.223c-.3.782.389 2.357 1.532 3.5 1.142 1.142 2.077 1.564 2.077.937s-.787-1.743-1.75-2.481c-1.53-1.172-1.561-1.467-.25-2.345 1.055-.705 1.12-1.008.219-1.019-.705-.008-1.527.625-1.828 1.408m12.535-.49c.784.496 1.582 1.925 1.773 3.174.491 3.217 1.301 3.69 1.301.76 0-2.569-1.642-4.878-3.45-4.852-.578.009-.408.422.376.918M79.232 60c0 1.925.206 2.712.457 1.75.252-.962.252-2.538 0-3.5-.251-.962-.457-.175-.457 1.75m44 0c0 1.925.206 2.712.457 1.75.252-.962.252-2.538 0-3.5-.251-.962-.457-.175-.457 1.75m4 0c0 1.925.206 2.712.457 1.75.252-.962.252-2.538 0-3.5-.251-.962-.457-.175-.457 1.75m19 0c0 1.925.206 2.712.457 1.75.252-.962.252-2.538 0-3.5-.251-.962-.457-.175-.457 1.75m10 0c0 1.925.206 2.712.457 1.75.252-.962.252-2.538 0-3.5-.251-.962-.457-.175-.457 1.75M48 140.5V208h21V73H48zm37.5-65.604c-2.2 1.018-5.214 3.146-6.697 4.728C72.883 85.938 73 84.534 73 148.99v59.055l60.915-.272 60.914-.273 4.336-3.013c2.534-1.762 5.27-4.862 6.585-7.462 2.047-4.048 2.25-5.856 2.25-20.052v-15.602l-19.175-15.936c-10.546-8.764-19.711-16.261-20.367-16.66-.738-.449-16.724 12.416-41.975 33.782-22.431 18.979-43.053 36.406-45.828 38.725-2.844 2.378 14.289-18.466 39.276-47.782 24.376-28.6 45.108-52.832 46.071-53.848 1.899-2.006-.396-2.867 35.248 13.218l6.75 3.046V73l-59.25.022c-55.538.021-59.501.138-63.25 1.874"/><path fill="#1976D2" fill-opacity=".27" fill-rule="evenodd" d="M65.5 48.491c-.55.184-2.249.61-3.775.947-4.701 1.038-10.532 7.172-12.219 12.855C48.678 65.081 48 67.506 48 67.682c0 .175 4.5.318 10 .318h10V58c0-5.5-.338-9.964-.75-9.921s-1.2.229-1.75.412M73 58v10h89V48H73zm95 0v10h40V48h-40zm-76.309-4.25c-.445.688-.445 1.295 0 1.35s-.316.41-1.691.789c-3.465.956-4.173 6.604-.956 7.625 3.135.995 4.117-.602 3.766-6.124-.187-2.949-.631-4.394-1.119-3.64M135 57.8c0 3.698 1.372 6.2 3.4 6.2.556 0 .467-.533-.2-1.2-1.447-1.447-1.626-6.181-.2-5.3 1.489.92 1.209-.434-.429-2.071C135.413 53.27 135 53.65 135 57.8M79.272 60c0 2.475.195 3.487.434 2.25.238-1.237.238-3.263 0-4.5-.239-1.237-.434-.225-.434 2.25m20.786-2.57c-.95 1.145-.769 1.654.905 2.55 1.151.616 1.824 1.555 1.496 2.086-.328.532-1.016.708-1.528.391s-.931-.098-.931.484c0 1.544 2.559 1.295 3.954-.385.962-1.16.79-1.699-.878-2.741-2.387-1.49-2.815-3.312-.576-2.453.825.316 1.5.139 1.5-.393 0-1.465-2.596-1.161-3.942.461m12.192-.791c2.373.688 2.206 2.008-.337 2.673-3.014.789-2.12 4.188 1.101 4.188 2.175 0 2.486-.438 2.486-3.5 0-3.017-.345-3.525-2.5-3.685-1.444-.106-1.761.03-.75.324m10.918 3.541.168 4.32.396-3.812c.486-4.676 2.496-4.446 3.424.391.649 3.384.654 3.377.5-.579-.13-3.329-.533-4.054-2.406-4.32-2.056-.292-2.236.053-2.082 4m23 .07.168 4.25.389-3.688c.253-2.399.98-3.843 2.082-4.134 1.205-.317 1.045-.479-.557-.562-2.023-.104-2.233.313-2.082 4.134m10.104-.25c0 2.475.195 3.487.434 2.25.238-1.237.238-3.263 0-4.5-.239-1.237-.434-.225-.434 2.25m-67.605-2.333c-1.222 1.221-.687 4.111.871 4.709 1.747.67 2.975-1.597 2.1-3.876-.609-1.588-1.865-1.94-2.971-.833M112 60.941c0 .518.45 1.219 1 1.559s1-.084 1-.941S113.55 60 113 60s-1 .423-1 .941M48 140.5V208h20V73H48zm34.84-63.613c-3.026 1.918-5.271 4.371-6.696 7.315C74.025 88.579 74 89.338 74 148.316V208l58.75-.022c55.051-.021 59.002-.139 62.75-1.874 2.2-1.018 5.214-3.146 6.697-4.728 4.97-5.3 5.807-8.952 5.755-25.094l-.048-14.782-20.028-16.5c-11.016-9.075-20.147-16.5-20.292-16.5s-20.22 16.875-44.61 37.5-45.275 38.144-46.41 38.931c-1.972 1.367-1.992 1.345-.45-.5 3.956-4.732 89.3-105.059 90.285-106.134.844-.922 5.739.89 20.943 7.75 10.913 4.924 20.025 8.953 20.25 8.953.224 0 .408-9.225.408-20.5V74H87.392z"/><path fill="#1976D2" fill-opacity=".508" fill-rule="evenodd" d="M74 58v10h88V48H74zm17.345-4.211c-.258.985-1.45 2.222-2.651 2.75C84.408 58.426 85.848 64 90.622 64c2.24 0 2.378-.349 2.378-6 0-5.89-.73-7.747-1.655-4.211M78 54c0 .55.675 1 1.5 1s1.5-.45 1.5-1-.675-1-1.5-1-1.5.45-1.5 1m77 0c0 .55.45 1 1 1s1-.45 1-1-.45-1-1-1-1 .45-1 1m-19.805 4.75c.26 4.053.635 4.797 2.555 5.07 1.238.175 2.25-.162 2.25-.75 0-.589-.675-1.07-1.5-1.07-.833 0-1.5-.889-1.5-2s.667-2 1.5-2c.825 0 1.5-.45 1.5-1s-.675-1-1.5-1-1.5-.45-1.5-1-.475-1-1.055-1c-.634 0-.933 1.893-.75 4.75M78.39 57.427c-.793 2.066-.061 6.073 1.11 6.073.55 0 1.14-1.687 1.31-3.75.307-3.705-1.299-5.246-2.42-2.323m21.01-.265c-.407.658.266 1.959 1.552 3 2.247 1.82 2.249 1.838.159 1.838C99.95 62 99 62.48 99 63.066c0 1.693 5.449.613 5.782-1.145.164-.869-.732-2.076-1.992-2.682-1.801-.868-1.916-1.118-.54-1.171.963-.038 1.75-.518 1.75-1.068 0-1.389-3.722-1.258-4.6.162m11.6-.232c0 .589.787 1.099 1.75 1.133 1.304.048 1.157.302-.574.996-3.212 1.287-2.475 4.347 1.147 4.764 2.687.309 2.793.16 2.492-3.5-.254-3.086-.749-3.885-2.565-4.143-1.237-.175-2.25.162-2.25.75m11.667-.263C121.608 57.725 121.894 64 123 64c.55 0 1-1.35 1-3q0-3 1.5-3t1.5 3c0 1.65.45 3 1 3 1.104 0 1.345-3.938.393-6.418-.604-1.573-4.453-2.188-5.726-.915M145 60c0 2.2.45 4 1 4s1-1.35 1-3q0-3 1.5-3c.825 0 1.5-.45 1.5-1s-1.125-1-2.5-1c-2.25 0-2.5.4-2.5 4m10 0c0 2.2.45 4 1 4s1-1.8 1-4-.45-4-1-4-1 1.8-1 4m-66.5-1c-.729 1.18.217 3 1.559 3 .518 0 .941-.9.941-2 0-2.109-1.455-2.691-2.5-1m-40.257 81.75.257 66.75 9.75.286 9.75.286V74H47.986zm72.456 27.5L74.307 207.5l56.097.264c38.2.179 57.81-.091 61.469-.847 4.205-.869 6.299-2.036 9.637-5.374 5.353-5.354 6.49-10.087 6.49-27.026v-12.385l-19.98-16.566C177.031 136.455 167.827 129 167.566 129c-.262 0-21.352 17.662-46.867 39.25"/></svg>